inDegrees=no
num_controls=7
num_derivatives=13
num_iterations=90
num_multipliers=7
num_parameters=0
num_slacks=7
num_states=26
objective=0.454557
objective_accelerations=0.043959
objective_balance=0.000796
objective_effort=0.036098
objective_height=0.367591
objective_ligament=0.006113
solver_duration=1109.318421
status=Solve_Succeeded
success=true
DataType=double
version=3
OpenSimVersion=4.5
endheader
time	/jointset/ground_pelvis/pelvis_tilt/value	/jointset/ground_pelvis/pelvis_tx/value	/jointset/ground_pelvis/pelvis_ty/value	/jointset/hip_r/hip_flexion_r/value	/jointset/hip_r/hip_adduction_r/value	/jointset/hip_r/hip_rotation_r/value	/jointset/back/lumbar_extension/value	/jointset/patellofemoral_r/patellar_flexion_r/value	/jointset/knee_r/knee_flexion_r/value	/jointset/knee_r/knee_adduction_r/value	/jointset/knee_r/knee_rotation_r/value	/jointset/ankle_r/ankle_angle_r/value	/jointset/subtalar_r/subtalar_angle_r/value	/jointset/ground_pelvis/pelvis_tilt/speed	/jointset/ground_pelvis/pelvis_tx/speed	/jointset/ground_pelvis/pelvis_ty/speed	/jointset/hip_r/hip_flexion_r/speed	/jointset/hip_r/hip_adduction_r/speed	/jointset/hip_r/hip_rotation_r/speed	/jointset/back/lumbar_extension/speed	/jointset/patellofemoral_r/patellar_flexion_r/speed	/jointset/knee_r/knee_flexion_r/speed	/jointset/knee_r/knee_adduction_r/speed	/jointset/knee_r/knee_rotation_r/speed	/jointset/ankle_r/ankle_angle_r/speed	/jointset/subtalar_r/subtalar_angle_r/speed	/forceset/tau_hip_flexion_r	/forceset/tau_hip_adduction_r	/forceset/tau_hip_rotation_r	/forceset/tau_knee_flexion_r	/forceset/tau_ankle_angle_r	/forceset/tau_subtalar_angle_r	/forceset/tau_lumbar_extension	lambda_cid13_p0	lambda_cid14_p0	lambda_cid14_p1	lambda_cid14_p2	lambda_cid14_p3	lambda_cid14_p4	lambda_cid14_p5	/jointset/ground_pelvis/pelvis_tilt/accel	/jointset/ground_pelvis/pelvis_tx/accel	/jointset/ground_pelvis/pelvis_ty/accel	/jointset/hip_r/hip_flexion_r/accel	/jointset/hip_r/hip_adduction_r/accel	/jointset/hip_r/hip_rotation_r/accel	/jointset/back/lumbar_extension/accel	/jointset/patellofemoral_r/patellar_flexion_r/accel	/jointset/knee_r/knee_flexion_r/accel	/jointset/knee_r/knee_adduction_r/accel	/jointset/knee_r/knee_rotation_r/accel	/jointset/ankle_r/ankle_angle_r/accel	/jointset/subtalar_r/subtalar_angle_r/accel	gamma_cid13_p0	gamma_cid14_p0	gamma_cid14_p1	gamma_cid14_p2	gamma_cid14_p3	gamma_cid14_p4	gamma_cid14_p5
0	-0.007595683437084494	0.1319336693682313	0.9332378798341213	0.1934211968871041	-0.2298539262248755	-0.2399808690398416	-0.2903787966825928	0.2311786273363455	0.2311786273363406	0.1362310529417418	0.1727137762898943	0.089344008118978	0.06177429476807263	0	0	0	0	0	0	0	0	0	0	0	0	0	0.09691945927278404	-0.04406988485130007	0.00424967026308815	-0.2290058912471934	0.1040396637878341	-0.09917099516361615	-0.02005498584152026	-29.92920000196969	-13.4260391303722	-40.211733194872	0.8828160320926669	5.279221034680172	-610.2833113448753	32.45603300289731	-1.52941808597251	-1.804352481108099	-0.8129184463415173	9.307566874982509	-0.2939355961816845	2.594405006345918	-6.229477237022164	9.873182311097887	9.873182311093942	-1.890460328798766	0.1932164842704149	2.620263705898657	0.3557634851694476	4.740553950838611e-08	2.264494236067148e-08	-3.940050931754028e-07	1.685945093802865e-07	1.499001084570583e-08	1.443495013656019e-07	-2.553483211912699e-07
0.01	-0.007666883272376985	0.1318457435108953	0.9331983399132238	0.1938732185175155	-0.2298674038637664	-0.2398504960112846	-0.2906909836004917	0.2316629591168766	0.2316629591168725	0.1361365683886561	0.1727195934490971	0.08947412302444985	0.0617933225115315	-0.01421881020511542	-0.01737941358275544	-0.007889462938657837	0.08989350179439241	-0.002720148415434586	0.02589723168027423	-0.06197734972059929	0.09645853306936883	0.09645853306936859	-0.01873553170636301	0.001231517219154467	0.02606256895601541	0.003789486955046728	0.09681447667310099	-0.05949360587442418	0.004092181606630033	-0.2342798292170979	0.1106452635231545	-0.08878393714595718	-0.01876121101479064	-29.93408257933932	-10.7660469542794	-35.17046630153582	0.005513479770447865	1.481146972314842	-611.833660155508	43.55684882889649	-1.364942161095024	-1.67386911639155	-0.7741531615818109	8.753617016083545	-0.2647768609215463	2.560816852987443	-6.112858760532134	9.471005868316205	9.471005868318629	-1.840940868132678	0.09836934651593771	2.605201163489915	0.3880898531474057	5.561473758485969e-08	5.088460248399211e-09	-4.371800328926983e-07	1.917627024437165e-07	3.740555175582356e-08	8.139090951731805e-09	-2.917000198933076e-07
0.02	-0.007879637144387828	0.1315901968538253	0.9330804667741484	0.1952088502027523	-0.2299088274661466	-0.2394664637451024	-0.2916091429997889	0.2330996396407917	0.233099639640792	0.1358595602632019	0.1727397757816476	0.08986605315408822	0.06184975483503598	-0.02831080734277003	-0.03352415994683572	-0.01566664363552634	0.1767220109654215	-0.005589192698762276	0.05073184752531784	-0.121194496279321	0.1904697486771307	0.1904697486771489	-0.03650471447583298	0.002873034669429441	0.05236304483350794	0.007480916009098688	0.09670949407342259	-0.07491732689753926	0.003934692950176991	-0.2395537671870046	0.1172508632584768	-0.07839687912828687	-0.01746743618805916	-29.94843638447241	-8.029977829762744	-30.13267041711239	-0.8520536830609344	-2.298021888261374	-612.1782733775731	54.42108017853135	-1.504055472480255	-1.557419037373135	-0.7904619979836474	8.694568350309856	-0.3237147697603076	2.381881839299791	-5.677436604646596	9.383718818776511	9.383718818776318	-1.69719054142016	0.2752165304945298	2.667845090194009	0.3361519049704703	6.382393566133327e-08	-1.246802186387305e-08	-4.803549726099938e-07	2.149308955071465e-07	5.982109266594131e-08	-1.280713194621383e-07	-3.280517185953453e-07
0.03	-0.008232537627769652	0.1311778492881426	0.9328851637496158	0.1973990829344519	-0.2299796592617825	-0.2388388565698243	-0.2931064075182787	0.2354639230923187	0.2354639230923157	0.1354100146018014	0.1727777463050026	0.09052004706101777	0.06194202177346176	-0.04219954890589897	-0.04889144145182607	-0.02339065556956675	0.2609368362859515	-0.00857965026563808	0.07473938211716839	-0.1779092409513755	0.2819340825342929	0.2819340825342781	-0.05324252980430467	0.00463607431547068	0.07826706464779226	0.01092169189620457	0.09136583052660992	-0.07324268719329866	0.004533660749219904	-0.2336876977162402	0.108821229954915	-0.07585988442557713	-0.01312878122701472	-29.97175162939222	-10.61498588527493	-29.3802911787054	-1.089859005541218	-0.8965171197741558	-612.6219915674183	55.03216588728595	-1.320818490954841	-1.518283891779822	-0.7629011004996946	8.226785667282346	-0.2871091410154788	2.402708426226775	-5.616118428242961	8.959849007229808	8.959849007224967	-1.637848502727581	0.1141445094838793	2.526387126118887	0.3403740636301905	7.466538037105156e-08	-2.387735432848229e-08	-5.743392574163783e-07	2.173703624715632e-07	7.645698311034969e-08	-2.182056746822686e-07	-3.634682016464292e-07
